# xmcd CD database file
#
# Track frame offsets:
#	150
#	19297
#	43405
#	56323
#	74099
#	90952
#	107279
#	130753
#	143916
#	160689
#	174826
#	196847
#
# Disc length: 2810 seconds
#
# Revision: 0
# Processed by: cddbd v1.5.2PL0 Copyright (c) Steve Scherf et al.
# Submitted via: CDex 1.51
#
DISCID=980af80c
DTITLE=Steve Benoit - Where I Belong
DYEAR=2001
DGENRE=Country
TTITLE0=Blue Highways
TTITLE1=Road to My Horizon
TTITLE2=Mill Creek
TTITLE3=Empty Nest
TTITLE4=Heart Full of Love
TTITLE5=Streets of Heaven
TTITLE6=Blood Is Thicker than Water
TTITLE7=Rock and Roll Star
TTITLE8=More than Just a Friend
TTITLE9=Where I Belong
TTITLE10=Great Fire of 1922
TTITLE11=Country Music Ain't Country Enough for Me
EXTD=YEAR: 2001
EXTT0=
EXTT1=
EXTT2=
EXTT3=
EXTT4=
EXTT5=
EXTT6=
EXTT7=
EXTT8=
EXTT9=
EXTT10=
EXTT11=
PLAYORDER=
